PathFileType	4	(X/Y/Z)	C:/Users/beibeiliu/ov580/test_trc/capture2\sequence.21_training_dense_left.trc
DataRate	CameraRate	NumFrames	NumMarkers	Units	OrigDataRate	OrigDataStartFrame	OrigNumFrames
120	120	8	19	mm	120	311	355
Frame#	Time	ThumbCMC			ThumbMCP			ThumbIP			ThumbTip			IndexMCP			IndexPIP			IndexTip			MiddleMCP			MiddlePIP			MiddleTip			RingMCP			RingPIP			RingTip			PinkyMCP			PinkyPIP			PinkyTip			BackHand1			BackHand2			BackHand3	
		X0	Y0	Z0	X1	Y1	Z1	X2	Y2	Z2	X3	Y3	Z3	X4	Y4	Z4	X5	Y5	Z5	X6	Y6	Z6	X7	Y7	Z7	X8	Y8	Z8	X9	Y9	Z9	X10	Y10	Z10	X11	Y11	Z11	X12	Y12	Z12	X13	Y13	Z13	X14	Y14	Z14	X15	Y15	Z15	X16	Y16	Z16	X17	Y17	Z17	X18	Y18	Z18	
310	2.58333	-173.393	50.057	-1.86755	-173.7	29.6776	-28.9057	-173.265	24.2787	-52.1926	-169.887	17.5513	-75.5226	-173.902	82.4455	-63.684	-177.645	74.8891	-88.4094	-181.607	69.0314	-112.088	-199.407	67.9674	-66.2211	-200.788	36.5867	-64.6967	-194.837	39.3405	-26.9979	-218.918	59.8643	-58.5233	-210.581	32.3173	-45.9315	-207.72	48.2849	-13.7543	-231.507	55.6725	-49.2626	-221.404	35.0615	-29.8616	-212.818	52.6596	-7.58951	-224.706	91.0341	-11.7434	-218.64	83.7251	17.9283	-189.422	84.4752	5.88214	
311	2.59167	-175.375	56.7239	-0.0308877	-177.24	38.9457	-30.8914	-169.578	28.9652	-54.843	-172.611	28.4316	-78.0197	-179.842	92.2204	-65.516	-178.417	84.8438	-88.5553	-178.307	79.7246	-112.191	-198.587	78.382	-66.3918	-202.284	45.6919	-65.4658	-194.231	48.7393	-27.8739	-217.708	68.9085	-59.573	-213.007	40.338	-46.4707	-206.917	54.1615	-15.991	-229.565	64.4945	-50.3898	-219.474	43.7785	-33.6012	-215.67	60.8689	-6.48942	-224.894	97.7422	-12.7057	-219.765	88.8106	20.2015	-188.125	95.1087	1.08572	
312	2.6	-170.547	65.6212	-4.37874	-175.335	49.0655	-31.724	-170.965	41.465	-55.5719	-171.035	38.825	-81.5678	-176.145	103.657	-65.0055	-176.733	95.6205	-90.8855	-181.627	91.4136	-115.308	-201.983	89.3069	-66.0754	-195.253	56.2058	-65.3831	-192.196	59.7414	-28.6058	-217.266	78.2524	-61.0812	-208.917	52.3238	-49.5155	-202.319	65.9807	-18.7367	-229.497	73.8771	-51.7931	-218.902	54.3354	-33.8351	-214.852	67.8978	-6.10622	-222.569	107.706	-13.6819	-222.386	97.1365	19.365	-189.811	100.807	4.7709	
313	2.60833	-168.848	73.794	-1.65367	-173.018	59.1845	-29.46	-168.329	54.1415	-61.6468	-165.327	50.1695	-82.4335	-173.946	115.948	-61.3466	-177.137	110.5	-87.0493	-178.62	106.046	-113.332	-194.902	102.131	-66.8824	-199.039	69.3424	-67.146	-190.927	69.9495	-30.0003	-214.154	90.5593	-62.1637	-211.458	63.5673	-48.6798	-201.986	76.7871	-18.3022	-229.088	90.1973	-50.0673	-217.474	64.8507	-36.951	-211.945	80.1735	-8.99777	-217.286	120.274	-13.0161	-220.143	108.787	20.7842	-186.673	112.133	4.45059	
314	2.61667	-167.735	85.7466	-1.5226	-170.224	71.2184	-33.5006	-163.662	64.8597	-58.2531	-164.382	63.9682	-81.184	-172.19	128.456	-59.9784	-173.482	123.087	-86.8988	-173.591	119.908	-113.248	-195.595	114.888	-64.4585	-193.855	83.1625	-68.5314	-188.22	81.1911	-32.1335	-215.056	105.474	-60.3504	-204.422	78.1202	-53.3668	-198.599	85.4311	-20.7615	-223.956	101.273	-52.3504	-217.508	76.7439	-40.1268	-209.85	88.7005	-8.25629	-218.147	129.688	-13.0445	-219.161	116.804	20.8111	-187.969	122.877	4.01223	
315	2.625	-163.158	96.4672	-1.88223	-165.446	82.4286	-32.7993	-160.78	78.4673	-57.9214	-156.044	77.8403	-85.4046	-166.877	140.575	-64.2841	-164.798	137.337	-87.574	-166.079	135.491	-111.398	-189.218	124.669	-67.667	-186.985	93.2835	-67.178	-185.731	93.239	-30.9536	-207.471	117.027	-60.5834	-200.363	88.6129	-50.3191	-196.782	97.3998	-19.1956	-220.337	112.885	-51.9526	-209.28	88.9396	-38.2378	-204.638	103.974	-8.73875	-210.811	139.776	-9.46094	-216.015	127.665	19.8319	-183.985	133.66	6.89447	
316	2.63333	-159.721	107.408	-2.29955	-159.79	96.3264	-34.107	-150.376	91.5897	-61.9534	-153.009	91.783	-80.775	-161.101	152.969	-55.9361	-162.162	150.364	-81.9232	-157.904	149.687	-110.365	-182.563	138.296	-64.1091	-183.998	106.969	-66.6692	-179.118	105.644	-28.6125	-202.762	125.867	-60.9255	-195.204	99.0566	-50.8911	-192.371	107.46	-18.179	-216.652	120.738	-53.7924	-205.86	98.8976	-37.5669	-198.188	111.724	-10.7132	-207.24	149.226	-6.72506	-208.71	136.636	22.7234	-175.615	144.162	8.44864	
317	2.64167	-149.87	116.275	-0.665204	-150.747	103.727	-30.1739	-142.84	102.228	-58.7822	-141.515	103.913	-82.5105	-157.292	165.097	-56.5408	-155.1	162.641	-78.7999	-155.855	162.206	-107.908	-180.157	150.233	-60.3046	-170.723	117.951	-64.9092	-173.814	112.996	-30.3227	-195.971	136.42	-58.7186	-185.385	110.935	-51.4744	-183.517	118.114	-16.9492	-210.114	133.806	-50.8793	-197.167	108.803	-37.2309	-191.708	122.641	-6.47564	-204.643	158.592	-3.92491	-204.368	142.094	22.9272	-172.248	150.631	9.97759	
